<svg width="32" height="32" viewBox="0 0 32 32" fill="none" xmlns="http://www.w3.org/2000/svg">
<g id="Frame 2087325007">
<g id="Group">
<path id="Vector" d="M2 5H5.5L9.5 21.5H30" stroke="white" stroke-width="1.5" stroke-miterlimit="10"/>
<path id="Vector_2" d="M9.5 6.28906H30.5L27.5 18.6641H12.4375L9.5 6.28906Z" stroke="white" stroke-width="1.5" stroke-miterlimit="10"/>
<path id="Vector_3" d="M13.5 27.6875C14.6391 27.6875 15.5625 26.7641 15.5625 25.625C15.5625 24.4859 14.6391 23.5625 13.5 23.5625C12.3609 23.5625 11.4375 24.4859 11.4375 25.625C11.4375 26.7641 12.3609 27.6875 13.5 27.6875Z" fill="white"/>
<path id="Vector_4" d="M27.0625 27.6875C28.2016 27.6875 29.125 26.7641 29.125 25.625C29.125 24.4859 28.2016 23.5625 27.0625 23.5625C25.9234 23.5625 25 24.4859 25 25.625C25 26.7641 25.9234 27.6875 27.0625 27.6875Z" fill="white"/>
</g>
</g>
</svg>
